<mxfile host="app.diagrams.net" modified="2022-05-09T15:56:39.728Z" agent="5.0 (Windows NT 10.0; Win64; x64) AppleWebKit/537.36 (KHTML, like Gecko) Chrome/99.0.4844.84 Safari/537.36 OPR/85.0.4341.75" etag="HZtl0FpwqQLRmlr0QNCI" version="18.0.2" type="github">
  <diagram id="oVPh_x6df8jIc5s3xTfl" name="PÃ¡gina-1">
    <mxGraphModel dx="1238" dy="548" grid="1" gridSize="10" guides="1" tooltips="1" connect="1" arrows="1" fold="1" page="1" pageScale="1" pageWidth="827" pageHeight="1169" math="0" shadow="0">
      <root>
        <mxCell id="0" />
        <mxCell id="1" parent="0" />
        <mxCell id="KB04ySpdSt4_q-6dJAmI-1" value="Universidad" style="shape=umlFrame;whiteSpace=wrap;html=1;width=90;height=40;" vertex="1" parent="1">
          <mxGeometry x="120" y="80" width="670" height="380" as="geometry" />
        </mxCell>
        <mxCell id="KB04ySpdSt4_q-6dJAmI-34" style="edgeStyle=orthogonalEdgeStyle;rounded=0;orthogonalLoop=1;jettySize=auto;html=1;exitX=0.5;exitY=0.5;exitDx=0;exitDy=0;exitPerimeter=0;" edge="1" parent="1" source="KB04ySpdSt4_q-6dJAmI-2" target="KB04ySpdSt4_q-6dJAmI-8">
          <mxGeometry relative="1" as="geometry" />
        </mxCell>
        <mxCell id="KB04ySpdSt4_q-6dJAmI-2" value="Administrador" style="shape=umlActor;verticalLabelPosition=bottom;verticalAlign=top;html=1;" vertex="1" parent="1">
          <mxGeometry x="50" y="240" width="30" height="60" as="geometry" />
        </mxCell>
        <mxCell id="KB04ySpdSt4_q-6dJAmI-8" value="Login" style="ellipse;whiteSpace=wrap;html=1;" vertex="1" parent="1">
          <mxGeometry x="160" y="250" width="110" height="50" as="geometry" />
        </mxCell>
        <mxCell id="KB04ySpdSt4_q-6dJAmI-9" value="Administrar Clubs" style="ellipse;whiteSpace=wrap;html=1;" vertex="1" parent="1">
          <mxGeometry x="290" y="140" width="110" height="50" as="geometry" />
        </mxCell>
        <mxCell id="KB04ySpdSt4_q-6dJAmI-10" value="Administrar Proyectos" style="ellipse;whiteSpace=wrap;html=1;" vertex="1" parent="1">
          <mxGeometry x="290" y="360" width="110" height="50" as="geometry" />
        </mxCell>
        <mxCell id="KB04ySpdSt4_q-6dJAmI-11" value="Aceptar/rechazar&amp;nbsp;&lt;br&gt;miembros" style="ellipse;whiteSpace=wrap;html=1;" vertex="1" parent="1">
          <mxGeometry x="450" y="90" width="120" height="40" as="geometry" />
        </mxCell>
        <mxCell id="KB04ySpdSt4_q-6dJAmI-12" value="Aceptar/rechazar&amp;nbsp;&lt;br&gt;noticas" style="ellipse;whiteSpace=wrap;html=1;" vertex="1" parent="1">
          <mxGeometry x="443" y="150" width="120" height="50" as="geometry" />
        </mxCell>
        <mxCell id="KB04ySpdSt4_q-6dJAmI-13" value="Crear noticias&lt;br&gt;clubs" style="ellipse;whiteSpace=wrap;html=1;" vertex="1" parent="1">
          <mxGeometry x="450" y="220" width="106" height="40" as="geometry" />
        </mxCell>
        <mxCell id="KB04ySpdSt4_q-6dJAmI-14" value="Extends" style="endArrow=block;endSize=16;endFill=0;html=1;rounded=0;exitX=0;exitY=0.5;exitDx=0;exitDy=0;entryX=1;entryY=0.5;entryDx=0;entryDy=0;" edge="1" parent="1" source="KB04ySpdSt4_q-6dJAmI-9" target="KB04ySpdSt4_q-6dJAmI-8">
          <mxGeometry width="160" relative="1" as="geometry">
            <mxPoint x="490" y="280" as="sourcePoint" />
            <mxPoint x="330" y="280" as="targetPoint" />
          </mxGeometry>
        </mxCell>
        <mxCell id="KB04ySpdSt4_q-6dJAmI-15" value="Extends" style="endArrow=block;endSize=16;endFill=0;html=1;rounded=0;exitX=0;exitY=0.5;exitDx=0;exitDy=0;entryX=1;entryY=0.5;entryDx=0;entryDy=0;" edge="1" parent="1" source="KB04ySpdSt4_q-6dJAmI-10" target="KB04ySpdSt4_q-6dJAmI-8">
          <mxGeometry width="160" relative="1" as="geometry">
            <mxPoint x="280" y="260" as="sourcePoint" />
            <mxPoint x="260" y="370" as="targetPoint" />
          </mxGeometry>
        </mxCell>
        <mxCell id="KB04ySpdSt4_q-6dJAmI-16" value="Include" style="html=1;verticalAlign=bottom;endArrow=open;dashed=1;endSize=8;rounded=0;exitX=1;exitY=0.5;exitDx=0;exitDy=0;entryX=0;entryY=0.5;entryDx=0;entryDy=0;" edge="1" parent="1" source="KB04ySpdSt4_q-6dJAmI-9" target="KB04ySpdSt4_q-6dJAmI-11">
          <mxGeometry relative="1" as="geometry">
            <mxPoint x="370" y="280" as="sourcePoint" />
            <mxPoint x="450" y="280" as="targetPoint" />
          </mxGeometry>
        </mxCell>
        <mxCell id="KB04ySpdSt4_q-6dJAmI-17" value="Include" style="html=1;verticalAlign=bottom;endArrow=open;dashed=1;endSize=8;rounded=0;exitX=1;exitY=0.5;exitDx=0;exitDy=0;entryX=0;entryY=0.5;entryDx=0;entryDy=0;" edge="1" parent="1" source="KB04ySpdSt4_q-6dJAmI-9" target="KB04ySpdSt4_q-6dJAmI-12">
          <mxGeometry relative="1" as="geometry">
            <mxPoint x="410" y="175" as="sourcePoint" />
            <mxPoint x="480" y="120" as="targetPoint" />
          </mxGeometry>
        </mxCell>
        <mxCell id="KB04ySpdSt4_q-6dJAmI-18" value="Include" style="html=1;verticalAlign=bottom;endArrow=open;dashed=1;endSize=8;rounded=0;exitX=1;exitY=0.5;exitDx=0;exitDy=0;entryX=0;entryY=0.5;entryDx=0;entryDy=0;" edge="1" parent="1" source="KB04ySpdSt4_q-6dJAmI-9" target="KB04ySpdSt4_q-6dJAmI-13">
          <mxGeometry relative="1" as="geometry">
            <mxPoint x="410" y="175" as="sourcePoint" />
            <mxPoint x="480" y="175" as="targetPoint" />
          </mxGeometry>
        </mxCell>
        <mxCell id="KB04ySpdSt4_q-6dJAmI-19" value="Aceptar/rechazar&lt;br&gt;proyecto" style="ellipse;whiteSpace=wrap;html=1;" vertex="1" parent="1">
          <mxGeometry x="470" y="280" width="106" height="40" as="geometry" />
        </mxCell>
        <mxCell id="KB04ySpdSt4_q-6dJAmI-20" value="Eliminar proyecto" style="ellipse;whiteSpace=wrap;html=1;" vertex="1" parent="1">
          <mxGeometry x="470" y="340" width="106" height="40" as="geometry" />
        </mxCell>
        <mxCell id="KB04ySpdSt4_q-6dJAmI-21" value="Crear noticias&lt;br&gt;proyectos" style="ellipse;whiteSpace=wrap;html=1;" vertex="1" parent="1">
          <mxGeometry x="470" y="410" width="106" height="40" as="geometry" />
        </mxCell>
        <mxCell id="KB04ySpdSt4_q-6dJAmI-22" value="Editar noticias&lt;br&gt;club" style="ellipse;whiteSpace=wrap;html=1;" vertex="1" parent="1">
          <mxGeometry x="650" y="190" width="77" height="40" as="geometry" />
        </mxCell>
        <mxCell id="KB04ySpdSt4_q-6dJAmI-23" value="Eliminar noticia&lt;br&gt;clubs" style="ellipse;whiteSpace=wrap;html=1;" vertex="1" parent="1">
          <mxGeometry x="650" y="250" width="110" height="50" as="geometry" />
        </mxCell>
        <mxCell id="KB04ySpdSt4_q-6dJAmI-25" value="Include" style="html=1;verticalAlign=bottom;endArrow=open;dashed=1;endSize=8;rounded=0;exitX=1;exitY=0.5;exitDx=0;exitDy=0;entryX=0;entryY=0.5;entryDx=0;entryDy=0;" edge="1" parent="1" source="KB04ySpdSt4_q-6dJAmI-13" target="KB04ySpdSt4_q-6dJAmI-22">
          <mxGeometry relative="1" as="geometry">
            <mxPoint x="580" y="185" as="sourcePoint" />
            <mxPoint x="630" y="260" as="targetPoint" />
          </mxGeometry>
        </mxCell>
        <mxCell id="KB04ySpdSt4_q-6dJAmI-26" value="Include" style="html=1;verticalAlign=bottom;endArrow=open;dashed=1;endSize=8;rounded=0;exitX=1;exitY=0.5;exitDx=0;exitDy=0;entryX=0;entryY=0.5;entryDx=0;entryDy=0;" edge="1" parent="1" source="KB04ySpdSt4_q-6dJAmI-13" target="KB04ySpdSt4_q-6dJAmI-23">
          <mxGeometry relative="1" as="geometry">
            <mxPoint x="566" y="250" as="sourcePoint" />
            <mxPoint x="680" y="220" as="targetPoint" />
          </mxGeometry>
        </mxCell>
        <mxCell id="KB04ySpdSt4_q-6dJAmI-27" value="Include" style="html=1;verticalAlign=bottom;endArrow=open;dashed=1;endSize=8;rounded=0;exitX=1;exitY=0.5;exitDx=0;exitDy=0;entryX=0;entryY=0.5;entryDx=0;entryDy=0;" edge="1" parent="1" source="KB04ySpdSt4_q-6dJAmI-10" target="KB04ySpdSt4_q-6dJAmI-19">
          <mxGeometry relative="1" as="geometry">
            <mxPoint x="349" y="310" as="sourcePoint" />
            <mxPoint x="443" y="340" as="targetPoint" />
          </mxGeometry>
        </mxCell>
        <mxCell id="KB04ySpdSt4_q-6dJAmI-28" value="Include" style="html=1;verticalAlign=bottom;endArrow=open;dashed=1;endSize=8;rounded=0;exitX=1;exitY=0.5;exitDx=0;exitDy=0;entryX=0;entryY=0.5;entryDx=0;entryDy=0;" edge="1" parent="1" source="KB04ySpdSt4_q-6dJAmI-10" target="KB04ySpdSt4_q-6dJAmI-20">
          <mxGeometry relative="1" as="geometry">
            <mxPoint x="410" y="395" as="sourcePoint" />
            <mxPoint x="480" y="310" as="targetPoint" />
          </mxGeometry>
        </mxCell>
        <mxCell id="KB04ySpdSt4_q-6dJAmI-29" value="Include" style="html=1;verticalAlign=bottom;endArrow=open;dashed=1;endSize=8;rounded=0;exitX=1;exitY=0.5;exitDx=0;exitDy=0;entryX=0;entryY=0.5;entryDx=0;entryDy=0;" edge="1" parent="1" source="KB04ySpdSt4_q-6dJAmI-10" target="KB04ySpdSt4_q-6dJAmI-21">
          <mxGeometry relative="1" as="geometry">
            <mxPoint x="410" y="395" as="sourcePoint" />
            <mxPoint x="480" y="370" as="targetPoint" />
          </mxGeometry>
        </mxCell>
        <mxCell id="KB04ySpdSt4_q-6dJAmI-30" value="Eliminar&amp;nbsp;&lt;br&gt;noticia&lt;br&gt;proyecto" style="ellipse;whiteSpace=wrap;html=1;" vertex="1" parent="1">
          <mxGeometry x="630" y="405" width="130" height="50" as="geometry" />
        </mxCell>
        <mxCell id="KB04ySpdSt4_q-6dJAmI-31" value="Editar noticia&lt;br&gt;proyecto" style="ellipse;whiteSpace=wrap;html=1;" vertex="1" parent="1">
          <mxGeometry x="656.5" y="350" width="103.5" height="50" as="geometry" />
        </mxCell>
        <mxCell id="KB04ySpdSt4_q-6dJAmI-32" value="Include" style="html=1;verticalAlign=bottom;endArrow=open;dashed=1;endSize=8;rounded=0;exitX=1;exitY=0.5;exitDx=0;exitDy=0;entryX=0;entryY=0.5;entryDx=0;entryDy=0;" edge="1" parent="1" source="KB04ySpdSt4_q-6dJAmI-21" target="KB04ySpdSt4_q-6dJAmI-31">
          <mxGeometry relative="1" as="geometry">
            <mxPoint x="562.5" y="350" as="sourcePoint" />
            <mxPoint x="656.5" y="380" as="targetPoint" />
          </mxGeometry>
        </mxCell>
        <mxCell id="KB04ySpdSt4_q-6dJAmI-33" value="Include" style="html=1;verticalAlign=bottom;endArrow=open;dashed=1;endSize=8;rounded=0;exitX=1;exitY=0.5;exitDx=0;exitDy=0;entryX=0;entryY=0.5;entryDx=0;entryDy=0;" edge="1" parent="1" source="KB04ySpdSt4_q-6dJAmI-21" target="KB04ySpdSt4_q-6dJAmI-30">
          <mxGeometry relative="1" as="geometry">
            <mxPoint x="586" y="440" as="sourcePoint" />
            <mxPoint x="666.5" y="380" as="targetPoint" />
          </mxGeometry>
        </mxCell>
      </root>
    </mxGraphModel>
  </diagram>
</mxfile>
